<?xml version="1.0"?>
<svg xmlns="http://www.w3.org/2000/svg" xmlns:xlink="http://www.w3.org/1999/xlink" version="1.1" id="Capa_1" x="0px" y="0px" width="512px" height="512px" viewBox="0 0 36.289 36.289" style="enable-background:new 0 0 36.289 36.289;" xml:space="preserve" class=""><g transform="matrix(-1 0 0 1 36.289 0)"><g>
	<path d="M34.426,12.593v-0.105c-0.01-2.465-0.209-4.973-1.59-6.61c-0.947-1.164-2.406-1.313-3.572-1.313   c-0.475,0-0.951,0.029-1.41,0.057c-0.404,0.023-0.793,0.048-1.148,0.048h-0.166c-0.336-0.071-0.678-0.108-1.029-0.146   c-0.318-0.035-0.646-0.068-0.99-0.137c-0.381-0.072-0.777-0.447-1.164-0.812C23.129,3.362,22.914,3.159,22.689,3   c-0.213-0.147-0.428-0.306-0.646-0.464c-0.67-0.486-1.359-0.991-2.148-1.344c-0.965-0.416-2.036-0.553-3.07-0.687   c-0.504-0.063-1.007-0.127-1.533-0.231c-0.262-0.024-0.53-0.055-0.803-0.086C13.676,0.097,12.834,0,11.997,0   c-0.57,0-1.07,0.045-1.571,0.146c-1.62,0.465-2.671,1.807-2.673,3.35c-0.842,0.339-1.596,1.039-2.07,1.939   C5.259,6.239,5.115,7.101,5.269,7.862c-1.602,1.047-2.428,3.01-1.982,4.693c-0.705,0.485-1.192,1.299-1.362,2.289   c-0.234,1.373,0.188,2.83,1.086,3.719c1.17,1.116,2.797,1.388,4.231,1.626c0.227,0.039,0.449,0.076,0.637,0.107   c0.195,0.051,0.4,0.098,0.611,0.145c1.912,0.445,3.268,0.883,3.271,2.447c0.004,1.033-0.337,1.988-0.695,3   c-0.412,1.16-0.839,2.361-0.771,3.762c0.129,2.49,1.188,4.66,2.807,5.785c0.682,0.541,1.544,0.854,2.365,0.854   c1.221,0,2.134-0.664,2.503-1.816c0.264-0.787,0.22-1.545,0.173-2.348c-0.012-0.199-0.023-0.402-0.031-0.615   c-0.045-1.102,0.086-2.016,0.414-2.889c0.608-1.715,1.836-3.324,2.844-4.539l0.543-0.686c0.768-0.969,1.559-1.971,2.438-2.754   c0.463-0.367,0.936-0.496,1.541-0.627c0.17-0.008,0.322-0.055,0.445-0.092c0.08-0.025,0.17-0.055,0.221-0.057   c0.592,0.049,1.225,0.092,1.877,0.092c0,0,0,0,0.002,0c1.271,0,3.113-0.146,4.404-1.388C34.453,17.131,34.438,14.398,34.426,12.593   z M31.287,16.939c-0.533,0.453-1.232,0.642-1.914,0.715c0.361-0.733,0.521-1.561,0.621-2.315c0.238-1.726,0.26-3.538,0.062-5.396   c-0.115-1.018-0.301-2.141-0.773-3.104h0.092c0.84,0,1.457,0.037,1.771,0.519c0.912,1.324,1.031,3.248,1.021,5.131l0.002,0.482   C32.182,14.244,32.197,16.177,31.287,16.939z" data-original="#000000" class="active-path" data-old_color="#FFFCFC" fill="#FFFFFF"/>
</g></g> </svg>
